<?xml version="1.0" standalone="no"?><!DOCTYPE svg PUBLIC "-//W3C//DTD SVG 1.1//EN" "http://www.w3.org/Graphics/SVG/1.1/DTD/svg11.dtd"><svg t="1588755148871" class="icon" viewBox="0 0 1024 1024" version="1.1" xmlns="http://www.w3.org/2000/svg" p-id="2879" width="16" height="16" xmlns:xlink="http://www.w3.org/1999/xlink"><defs><style type="text/css"></style></defs><path d="M895.912 301.976c0-151.408-123.168-274.6-274.56-274.6-151.4 0-274.568 123.168-274.568 274.56 0 88.968 43.72 172.872 116.952 224.456l2.232 1.576-2.512 1c-152.04 63.456-254.184 216.344-254.184 380.488a19.168 19.168 0 1 0 38.344 0 368.96 368.96 0 0 1 19.2-117.48 378.088 378.088 0 0 1 136.616-185.744 369.6 369.6 0 0 1 106.128-53.28l0.544-0.168 0.512 0.232a271.728 271.728 0 0 0 110.728 23.512c151.4 0 274.568-123.16 274.568-274.552z m-274.56 236.208c-130.256 0-236.216-105.96-236.216-236.216S491.096 65.72 621.352 65.72s236.208 105.96 236.208 236.216-105.952 236.248-236.208 236.248zM948.664 666.648l-91 125.408h71.704v27.712h-83.544v38.192h83.544v28.064h-83.544v55.6h-42.976v-55.6H716.224v-28.064h86.616v-38.192H716.224v-27.712h73.896L700 666.648h48.464c42.104 62.288 67.68 101.784 76.752 118.488h0.872c3.072-6.864 11.48-20.728 25.216-41.568l51.528-76.912h45.832z" p-id="2880" fill="#ff8080"></path></svg>