<?xml version="1.0" standalone="no"?><!DOCTYPE svg PUBLIC "-//W3C//DTD SVG 1.1//EN" "http://www.w3.org/Graphics/SVG/1.1/DTD/svg11.dtd"><svg t="1588756224934" class="icon" viewBox="0 0 1024 1024" version="1.1" xmlns="http://www.w3.org/2000/svg" p-id="4697" xmlns:xlink="http://www.w3.org/1999/xlink" width="16" height="16"><defs><style type="text/css"></style></defs><path d="M846.25 923.92c-0.67 10.02-4.35 18.54-11.02 25.56-6.69 7.02-15.21 10.52-25.56 10.52-10.37 0-18.89-3.51-25.56-10.52-6.69-7.02-10.02-15.53-10.02-25.56 0-35.41-6.69-68.98-20.04-100.72-13.37-31.73-32.42-59.96-57.13-84.69-24.73-24.71-52.96-43.75-84.69-57.13-31.74-13.36-65.32-20.04-100.72-20.04-35.42 0-68.83 6.69-100.22 20.04-31.41 13.37-59.63 32.42-84.69 57.13-25.06 24.73-44.1 52.96-57.13 84.69-13.03 31.74-19.54 65.32-19.54 100.72-0.67 10.02-4.35 18.54-11.02 25.56-6.69 7.02-15.21 10.52-25.56 10.52-10.37 0-18.89-3.51-25.56-10.52-6.69-7.02-10.02-15.53-10.02-25.56 0-45.43 8.68-88.85 26.06-130.29 16.69-40.09 40.42-75.5 71.16-106.24 30.72-30.72 66.15-54.78 106.24-72.16 14.03-5.34 28.06-10.02 42.09-14.03-40.09-13.36-75.84-35.41-107.24-66.15-26.06-26.72-45.95-56.63-59.63-89.7-13.7-33.07-20.55-68.15-20.55-105.23s6.84-72.32 20.55-105.74c13.69-33.4 33.73-63.3 60.13-89.7 26.39-26.39 56.28-46.43 89.7-60.13C439.67 70.86 474.92 64 512 64s72.16 6.86 105.23 20.55c33.07 13.7 62.8 33.75 89.2 60.13 26.39 26.4 46.43 56.3 60.13 89.7 13.69 33.42 20.55 68.65 20.55 105.74s-6.86 72.16-20.55 105.23c-13.7 33.07-33.57 62.98-59.63 89.7-30.74 30.74-66.15 52.79-106.24 66.15 14.03 4.01 27.72 8.69 41.09 14.03 40.09 17.38 75.5 41.44 106.24 72.16 30.72 30.74 54.45 66.15 71.16 106.24 17.37 41.43 26.39 84.86 27.07 130.29zM367.68 483.44c38.41 38.43 86.35 58.63 143.82 60.64 57.46-2 105.39-22.05 143.82-60.13 38.41-38.08 58.29-86.19 59.63-144.32-1.35-57.46-21.22-105.39-59.63-143.82-38.43-38.41-86.36-58.29-143.82-59.63-57.47 1.35-105.41 21.22-143.82 59.63-38.43 38.43-58.3 86.36-59.63 143.82 1.33 57.46 21.2 105.39 59.63 143.81z" p-id="4698" fill="#ff8080"></path></svg>