<?xml version="1.0" standalone="no"?><!DOCTYPE svg PUBLIC "-//W3C//DTD SVG 1.1//EN" "http://www.w3.org/Graphics/SVG/1.1/DTD/svg11.dtd"><svg t="1588821275608" class="icon" viewBox="0 0 1024 1024" version="1.1" xmlns="http://www.w3.org/2000/svg" p-id="4370" xmlns:xlink="http://www.w3.org/1999/xlink" width="16" height="16"><defs><style type="text/css"></style></defs><path d="M674.688 643.52l160.448-5.504c82.816 78.848 135.936 264.704 122.88 385.984H64c2.24-106.432 21.696-288.384 126.976-380.8l144.96 1.408 135.68 143.232 25.536-86.4-18.432-30.592 1.28-31.36c17.664-0.96 28.992-1.472 40.32-1.472 11.392 0 22.784 0.512 40.32 1.472l1.472 31.36-18.432 30.592 25.664 86.4 105.344-144.32z m217.536 314.24c-8.704-89.28-43.136-190.336-86.272-248.896l-83.008 2.944c-98.56 117.76-148.032 177.408-148.544 178.752v67.2h317.824z m-751.232 0h317.76v-67.2c-0.512-1.344-49.984-60.928-148.48-178.752l-83.008-2.944c-43.136 58.56-77.632 159.616-86.272 248.96z m631.168-664.96l0.128 10.752c0.512 31.552-3.2 58.24-11.456 78.784-7.68 18.88-18.816 32.896-33.792 41.344-10.24 36.736-22.208 70.72-39.104 99.2-19.584 32.96-45.44 58.24-81.856 71.872-16.256 6.016-57.984 8.768-98.048 8.192-38.656-0.64-77.44-4.48-92.8-11.648-33.28-15.36-56.512-41.216-74.176-73.408-15.104-27.52-25.92-59.456-35.392-93.248-15.552-8.128-27.136-22.208-34.88-41.024-8.576-20.8-12.544-47.872-11.968-80v-10.88l9.152-6.208a80.64 80.64 0 0 1 6.912-4.352c-10.176-126.336-6.4-173.056 40.192-226.432C405.952-19.2 614.208-16.512 706.304 51.392c62.72 59.584 67.008 126.4 47.744 229.568 3.072 1.664 6.08 3.52 9.024 5.568l9.088 6.272z m-63.552 68.352c3.584-8.832 5.888-20.288 7.04-34.24l-30.72 2.048-5.76-30.976c-3.008-15.68-7.488-63.04-13.568-77.568a490.88 490.88 0 0 1-86.976 8.512c-49.6 0-92.48-9.984-127.36-29.696a19.712 19.712 0 0 0-10.112-2.432c-9.152 0-20.416 3.712-32.32 7.68-11.52 3.84-23.488 7.68-38.848 8.896-7.68 16.64-13.312 66.432-16.768 84.736l-5.888 32-31.808-3.072c1.024 14.208 3.456 25.856 7.168 34.88 2.176 5.12 5.76 11.712 10.944 13.312l18.56 5.76 5.12 19.008c7.872 29.44 18.048 63.36 32.96 90.56 13.44 24.32 29.184 40.384 48.32 49.28 4.864 2.24 27.584 5.888 70.208 6.592l10.688 0.064c37.056 0 60.8-2.56 67.2-4.992 21.312-7.936 38.656-23.488 52.992-47.616 13.184-22.144 24.128-51.2 35.584-94.336l4.8-18.24 17.664-6.144c4.032-1.344 7.872-6.4 10.88-14.016z" p-id="4371" fill="#ff8080"></path></svg>